<svg xmlns="http://www.w3.org/2000/svg" version="1.1" xmlns:xlink="http://www.w3.org/1999/xlink" xmlns:svgjs="http://svgjs.dev/svgjs" width="2000" height="1252" viewBox="0 0 2000 1252"><g transform="matrix(1,0,0,1,-1.2121212121212466,-1.2192425580531108)"><svg viewBox="0 0 396 248" data-background-color="#d498ca" preserveAspectRatio="xMidYMid meet" height="1252" width="2000" xmlns="http://www.w3.org/2000/svg" xmlns:xlink="http://www.w3.org/1999/xlink"><g id="tight-bounds" transform="matrix(1,0,0,1,0.2400000000000091,0.24151130542904298)"><svg viewBox="0 0 395.52 247.2" height="247.2" width="395.52"><g><svg></svg></g><g><svg viewBox="0 0 395.52 247.2" height="247.2" width="395.52"><mask id="3281685a-99a0-4f83-804a-072980b1334e"><rect width="640" height="400" fill="white"></rect><g transform="matrix(1,0,0,1,76.93970711297071,37.08)"><svg viewBox="0 0 241.64058577405856 173.04" height="173.04" width="241.64058577405856"><g><svg viewBox="0 0 241.64058577405856 173.04" height="173.04" width="241.64058577405856"><g><svg viewBox="0 0 241.64058577405856 173.04" height="173.04" width="241.64058577405856"><g><svg viewBox="0 0 241.64058577405856 173.04" height="173.04" width="241.64058577405856"><g id="SvgjsG2847"><svg viewBox="0 0 241.64058577405856 173.04" height="173.04" width="241.64058577405856" id="SvgjsSvg2846"><g><svg viewBox="0 0 241.64058577405856 173.04" height="173.04" width="241.64058577405856"><g transform="matrix(1,0,0,1,0,0)"><svg width="241.64058577405856" viewBox="-2.95 -39.5 67.75 48.8" height="173.04" data-palette-color="#ffffff"><path d="M4.6-2.5L5.35-6.9 7.3-32.5 3.2-33.5 3.45-35.25 9.55-35 12.8-35 12.8-34 20.6-14.55 22.85-8 22.95-8 24.95-14.2 32.85-34 32.85-35 35.85-35 42.7-35.25 42.6-33.5 38.45-32.5 40.65-7.5 41.55-2.4 44.95-1.5 44.7 0.25 38.6 0 31.75 0.25 31.85-1.5 35.45-2.35 35.6-7 35.15-14.5 33.75-29.5 33.5-29.5 31.55-23.4 23.4-2.3 24.2 0 21.8 1 20.85-1.35 11.55-23.55 9.6-29.5 9.4-29.5 8.35-13.35 8.15-6.8 8.25-2.45 11.9-1.45 11.65 0.3 6.4 0 1.05 0.25 1.15-1.5 4.6-2.5ZM51.65-5.4L51.75-26.9 51.45-32.5 47.6-33.5 47.85-35.5 53.95-35 60.8-35.5 60.7-33.5 56.7-32.5 56.35-19.9 56.7-5.45 54.9-0.45 51.8 2.5 46.45 5.3 45.45 4.05 50.55 0.15 51.65-5.4Z" opacity="1" transform="matrix(1,0,0,1,0,0)" fill="black" class="wordmark-text-0" id="SvgjsPath2845" stroke-width="7" stroke="black" stroke-linejoin="round"></path></svg></g></svg></g></svg></g></svg></g></svg></g></svg></g></svg></g></mask><g transform="matrix(1,0,0,1,76.93970711297071,37.08)"><svg viewBox="0 0 241.64058577405856 173.04" height="173.04" width="241.64058577405856"><g><svg viewBox="0 0 241.64058577405856 173.04" height="173.04" width="241.64058577405856"><g><svg viewBox="0 0 241.64058577405856 173.04" height="173.04" width="241.64058577405856"><g><svg viewBox="0 0 241.64058577405856 173.04" height="173.04" width="241.64058577405856"><g id="textblocktransform"><svg viewBox="0 0 241.64058577405856 173.04" height="173.04" width="241.64058577405856" id="textblock"><g><svg viewBox="0 0 241.64058577405856 173.04" height="173.04" width="241.64058577405856"><g transform="matrix(1,0,0,1,0,0)"><svg width="241.64058577405856" viewBox="-2.95 -39.5 67.75 48.8" height="173.04" data-palette-color="#ffffff"><path d="M4.6-2.5L5.35-6.9 7.3-32.5 3.2-33.5 3.45-35.25 9.55-35 12.8-35 12.8-34 20.6-14.55 22.85-8 22.95-8 24.95-14.2 32.85-34 32.85-35 35.85-35 42.7-35.25 42.6-33.5 38.45-32.5 40.65-7.5 41.55-2.4 44.95-1.5 44.7 0.25 38.6 0 31.75 0.25 31.85-1.5 35.45-2.35 35.6-7 35.15-14.5 33.75-29.5 33.5-29.5 31.55-23.4 23.4-2.3 24.2 0 21.8 1 20.85-1.35 11.55-23.55 9.6-29.5 9.4-29.5 8.35-13.35 8.15-6.8 8.25-2.45 11.9-1.45 11.65 0.3 6.4 0 1.05 0.25 1.15-1.5 4.6-2.5ZM51.65-5.4L51.75-26.9 51.45-32.5 47.6-33.5 47.85-35.5 53.95-35 60.8-35.5 60.7-33.5 56.7-32.5 56.35-19.9 56.7-5.45 54.9-0.45 51.8 2.5 46.45 5.3 45.45 4.05 50.55 0.15 51.65-5.4Z" opacity="1" transform="matrix(1,0,0,1,0,0)" fill="#ffffff" class="wordmark-text-0" data-fill-palette-color="primary" id="text-0"></path></svg></g></svg></g></svg></g></svg></g></svg></g></svg></g></svg></g><g mask="url(#3281685a-99a0-4f83-804a-072980b1334e)"><g transform="matrix(10.655289277491995, 0, 0, 10.655289277491995, 69.90683344126481, 1)"><svg xmlns="http://www.w3.org/2000/svg" xml:space="preserve" viewBox="0.0009671038392675257 0.487954915211006 23.998065792321466 23.012045343335277" x="0" y="0" height="23.012045343335277" width="23.998065792321466" class="icon-none" data-fill-palette-color="accent" id="none"><path d="M7.5 23.5a0.5 0.5 0 0 1-0.462-0.689l9-22a0.5 0.5 0 1 1 0.925 0.379l-9 22a0.5 0.5 0 0 1-0.463 0.31M17.5 19.5a0.5 0.5 0 0 1-0.379-0.826L22.841 12 17.12 5.325a0.5 0.5 0 1 1 0.759-0.651l6 7a0.5 0.5 0 0 1 0 0.65l-6 7a0.5 0.5 0 0 1-0.379 0.176M6.5 19.5a0.5 0.5 0 0 1-0.379-0.175l-6-7a0.5 0.5 0 0 1 0-0.65l6-7a0.5 0.5 0 1 1 0.758 0.65L1.159 12l5.721 6.675a0.5 0.5 0 0 1-0.38 0.825" fill="#ffffff" data-fill-palette-color="accent"></path></svg></g></g></svg></g><defs></defs></svg><rect width="395.52" height="247.2" fill="none" stroke="none" visibility="hidden"></rect></g></svg></g></svg>